<svg width="1003" height="658" viewBox="0 0 1003 658" fill="none" xmlns="http://www.w3.org/2000/svg">
<path d="M65.0016 624.231V633.408L87.6748 655L104.41 650.142L125.463 645.823H143.278L158.394 633.408V619.913L177.828 615.055L192.403 583.746L230.732 578.888V554.057L252.325 544.881L260.963 554.057L294.433 563.234L323.584 549.739L343.018 558.915L354.354 544.881L337.08 528.147L350.576 515.192L337.08 509.254L343.018 487.122L354.354 493.6L366.231 487.122L362.452 468.229H371.089L362.452 426.124L382.966 412.09L401.86 430.443L413.197 417.488L445.587 452.035L455.304 455.274L510.367 438.54L534.12 412.09V430.443H556.254L561.652 447.716L595.122 426.124L630.211 430.443L622.654 442.318L643.707 462.831L652.885 487.122L683.655 497.918L717.125 500.617L707.408 487.122L717.125 462.831L746.276 473.087L767.33 455.274L795.402 473.087L807.278 497.918L819.694 493.6L824.013 509.254L843.987 504.396L863.421 509.254L882.855 500.617L903.909 493.6L915.785 473.087L933.6 466.609L951.955 430.443L972.468 421.806L996.761 417.488L1000 398.595L991.902 369.985L972.468 360.269L956.273 346.774L936.839 325.721L933.6 303.05L951.955 287.396L940.078 272.821L919.564 278.759L909.847 264.724L892.572 256.627L870.979 243.672L848.846 246.91L824.013 256.627L799.181 250.149L795.402 238.813L805.659 213.443L819.694 189.152L812.676 176.736L819.694 160.002L812.676 144.888L795.402 149.206L790.003 135.711L774.888 138.95L767.33 129.234L743.037 123.296L724.683 104.403L703.629 88.7488L690.133 62.8383L693.912 48.8035L684.195 30.4502L675.018 4L656.663 9.39801L626.972 20.7338L612.397 12.6368L605.379 25.592L593.502 30.4502L580.546 25.592L560.033 20.7338V34.2289L534.12 39.6269L540.598 48.8035L534.12 68.2363L517.925 79.0323L500.65 54.2015L487.694 71.4751L476.358 65.5373V43.9453L455.304 48.8035L445.587 39.6269L424.533 54.2015L413.197 75.2537L398.081 62.8383L377.568 54.2015L350.576 62.8383L333.301 48.8035L318.185 62.8383L304.689 79.0323L284.176 88.209L293.893 111.42L284.176 130.853L290.654 137.871V160.002L267.441 172.418L277.698 201.567L284.176 209.124L277.698 216.142L284.176 222.08V236.654L304.689 253.388L284.176 257.167C284.356 263.104 284.607 275.628 284.176 278.219C283.744 280.81 275.718 273.181 271.759 269.042C270.32 273.721 267.441 283.185 267.441 283.617C267.441 284.049 249.446 294.233 240.449 299.271L220.475 293.873L216.156 328.96H192.403L188.624 349.473L169.73 328.96L121.145 323.022L95.7724 339.216L104.41 349.473L87.6748 351.632L59.0634 365.127L72.0195 370.525V391.577L59.0634 395.356L65.0016 408.311L79.0374 433.142L54.7447 441.239L19.1154 437.46L4 441.239L9.39837 458.512L19.1154 464.45L23.974 472.547H36.3902H50.9659H59.0634L72.0195 483.883L87.6748 479.565L100.091 492.52L95.7724 504.396L100.091 523.289L107.109 540.562L100.091 545.96L87.6748 540.562L79.0374 550.818L87.6748 567.552L79.0374 587.525L83.3561 601.02L79.0374 615.055L65.0016 624.231Z" fill="#C6D6F7" stroke="#6571F9" stroke-width="5"/>
<path d="M675.476 370.739H684.853L682.095 384H690.921L696.437 380.132L704.71 370.739L716.845 384H728.98H741.115L747.734 380.132L762.627 377.37L774.762 370.739L777.52 360.794L786.345 354.716L783.036 349.191L777.52 345.323L788 338.693L783.036 336.482L774.762 332.615L770.901 324.879H762.627L756.56 318.802L770.901 316.591L767.04 309.961L756.56 304.988L752.147 298.358V289.518L747.734 282.887L741.115 286.755L731.187 289.518L725.119 286.755L716.845 289.518L708.571 282.887L711.329 271.837C710.41 268.337 709.123 259.57 711.329 252.498C713.536 245.426 710.41 244.763 708.571 245.315L696.437 242L684.853 245.315L679.889 252.498L675.476 249.183L668.306 252.498V261.339H662.79V275.152L658.929 282.887L656.722 296.148L662.79 300.568V309.961L649 304.988V309.961L658.929 316.591V324.879C658.193 326.537 656.06 331.62 653.413 338.693C650.103 347.533 658.377 339.245 668.306 349.191L675.476 356.374V370.739Z" fill="#6571F9"/>
<circle cx="714.5" cy="325.5" r="6.5" fill="#EBF197"/>
<circle cx="475.5" cy="215.5" r="6.5" fill="#EBF197"/>
<path d="M686.537 348V342.834C686.357 342.906 686.123 342.996 685.835 343.104C685.547 343.2 685.205 343.284 684.809 343.356C684.425 343.428 683.981 343.464 683.477 343.464C682.025 343.464 680.945 343.14 680.237 342.492C679.529 341.844 679.175 340.812 679.175 339.396V335.22H681.137V339.18C681.137 340.02 681.347 340.638 681.767 341.034C682.187 341.43 682.895 341.628 683.891 341.628C684.359 341.628 684.833 341.574 685.313 341.466C685.805 341.358 686.213 341.22 686.537 341.052V335.22H688.517V348H686.537ZM695.395 348.18C694.663 348.18 693.997 348.054 693.397 347.802C692.809 347.538 692.299 347.184 691.867 346.74C691.435 346.284 691.099 345.768 690.859 345.192C690.631 344.604 690.517 343.98 690.517 343.32C690.517 342.432 690.721 341.622 691.129 340.89C691.537 340.146 692.107 339.552 692.839 339.108C693.571 338.652 694.429 338.424 695.413 338.424C696.397 338.424 697.243 338.652 697.951 339.108C698.671 339.552 699.229 340.14 699.625 340.872C700.021 341.604 700.219 342.39 700.219 343.23C700.219 343.374 700.213 343.512 700.201 343.644C700.189 343.764 700.177 343.866 700.165 343.95H692.623C692.659 344.502 692.809 344.988 693.073 345.408C693.349 345.816 693.697 346.14 694.117 346.38C694.537 346.608 694.987 346.722 695.467 346.722C695.995 346.722 696.493 346.59 696.961 346.326C697.441 346.062 697.765 345.714 697.933 345.282L699.625 345.768C699.421 346.224 699.109 346.638 698.689 347.01C698.281 347.37 697.795 347.658 697.231 347.874C696.667 348.078 696.055 348.18 695.395 348.18ZM692.569 342.636H698.257C698.221 342.096 698.065 341.622 697.789 341.214C697.525 340.794 697.183 340.47 696.763 340.242C696.355 340.002 695.899 339.882 695.395 339.882C694.903 339.882 694.447 340.002 694.027 340.242C693.619 340.47 693.283 340.794 693.019 341.214C692.755 341.622 692.605 342.096 692.569 342.636ZM707.18 348.18C706.424 348.18 705.758 348 705.182 347.64C704.606 347.28 704.15 346.812 703.814 346.236V351.834H701.834V338.586H703.58V340.278C703.94 339.714 704.408 339.264 704.984 338.928C705.56 338.592 706.202 338.424 706.91 338.424C707.558 338.424 708.152 338.556 708.692 338.82C709.232 339.072 709.7 339.426 710.096 339.882C710.492 340.338 710.798 340.86 711.014 341.448C711.242 342.024 711.356 342.636 711.356 343.284C711.356 344.184 711.176 345.006 710.816 345.75C710.468 346.494 709.976 347.088 709.34 347.532C708.716 347.964 707.996 348.18 707.18 348.18ZM706.532 346.488C706.952 346.488 707.33 346.398 707.666 346.218C708.014 346.038 708.308 345.798 708.548 345.498C708.8 345.198 708.992 344.856 709.124 344.472C709.256 344.088 709.322 343.692 709.322 343.284C709.322 342.852 709.25 342.444 709.106 342.06C708.962 341.676 708.752 341.34 708.476 341.052C708.212 340.764 707.9 340.536 707.54 340.368C707.192 340.2 706.808 340.116 706.388 340.116C706.136 340.116 705.872 340.164 705.596 340.26C705.32 340.356 705.062 340.488 704.822 340.656C704.582 340.824 704.372 341.022 704.192 341.25C704.012 341.478 703.886 341.718 703.814 341.97V344.436C703.982 344.82 704.204 345.168 704.48 345.48C704.756 345.78 705.074 346.026 705.434 346.218C705.794 346.398 706.16 346.488 706.532 346.488ZM713.137 348V338.604H715.117V345.354L719.887 338.586H721.687V348H719.707V341.394L714.991 348H713.137ZM724.053 348V338.586H726.015V342.312H726.951L729.723 338.586H731.919L728.481 343.14L732.315 348H730.029L726.933 344.094H726.015V348H724.053ZM737.564 348.18C736.82 348.18 736.154 348.054 735.566 347.802C734.978 347.538 734.468 347.178 734.036 346.722C733.616 346.266 733.292 345.75 733.064 345.174C732.836 344.586 732.722 343.962 732.722 343.302C732.722 342.642 732.836 342.018 733.064 341.43C733.292 340.842 733.616 340.326 734.036 339.882C734.468 339.426 734.978 339.072 735.566 338.82C736.166 338.556 736.832 338.424 737.564 338.424C738.296 338.424 738.956 338.556 739.544 338.82C740.144 339.072 740.654 339.426 741.074 339.882C741.506 340.326 741.836 340.842 742.064 341.43C742.292 342.018 742.406 342.642 742.406 343.302C742.406 343.962 742.292 344.586 742.064 345.174C741.836 345.75 741.506 346.266 741.074 346.722C740.654 347.178 740.144 347.538 739.544 347.802C738.956 348.054 738.296 348.18 737.564 348.18ZM734.756 343.32C734.756 343.92 734.882 344.46 735.134 344.94C735.386 345.42 735.722 345.798 736.142 346.074C736.562 346.35 737.036 346.488 737.564 346.488C738.08 346.488 738.548 346.35 738.968 346.074C739.4 345.786 739.742 345.402 739.994 344.922C740.246 344.43 740.372 343.89 740.372 343.302C740.372 342.702 740.246 342.162 739.994 341.682C739.742 341.202 739.4 340.824 738.968 340.548C738.548 340.26 738.08 340.116 737.564 340.116C737.036 340.116 736.562 340.26 736.142 340.548C735.722 340.836 735.386 341.22 735.134 341.7C734.882 342.168 734.756 342.708 734.756 343.32ZM744.163 348V338.586H749.203C749.803 338.586 750.295 338.7 750.679 338.928C751.075 339.144 751.369 339.426 751.561 339.774C751.753 340.11 751.849 340.482 751.849 340.89C751.849 341.406 751.729 341.862 751.489 342.258C751.249 342.654 750.895 342.954 750.427 343.158C750.967 343.314 751.405 343.59 751.741 343.986C752.089 344.37 752.263 344.868 752.263 345.48C752.263 346.032 752.131 346.5 751.867 346.884C751.603 347.256 751.225 347.538 750.733 347.73C750.253 347.91 749.689 348 749.041 348H744.163ZM746.035 346.632H748.987C749.239 346.632 749.467 346.572 749.671 346.452C749.887 346.32 750.055 346.152 750.175 345.948C750.295 345.732 750.355 345.504 750.355 345.264C750.355 345 750.295 344.766 750.175 344.562C750.067 344.358 749.911 344.196 749.707 344.076C749.515 343.956 749.287 343.896 749.023 343.896H746.035V346.632ZM746.035 342.618H748.699C748.951 342.618 749.173 342.558 749.365 342.438C749.557 342.306 749.707 342.132 749.815 341.916C749.923 341.7 749.977 341.472 749.977 341.232C749.977 340.884 749.863 340.584 749.635 340.332C749.407 340.08 749.107 339.954 748.735 339.954H746.035V342.618Z" fill="#FCFCFA"/>
<path d="M451.191 241V231.892L447.429 238.804H446.241L442.461 231.892V241H440.445V228.22H442.605L446.835 236.032L451.065 228.22H453.225V241H451.191ZM459.927 241.18C459.183 241.18 458.517 241.054 457.929 240.802C457.341 240.538 456.831 240.178 456.399 239.722C455.979 239.266 455.655 238.75 455.427 238.174C455.199 237.586 455.085 236.962 455.085 236.302C455.085 235.642 455.199 235.018 455.427 234.43C455.655 233.842 455.979 233.326 456.399 232.882C456.831 232.426 457.341 232.072 457.929 231.82C458.529 231.556 459.195 231.424 459.927 231.424C460.659 231.424 461.319 231.556 461.907 231.82C462.507 232.072 463.017 232.426 463.437 232.882C463.869 233.326 464.199 233.842 464.427 234.43C464.655 235.018 464.769 235.642 464.769 236.302C464.769 236.962 464.655 237.586 464.427 238.174C464.199 238.75 463.869 239.266 463.437 239.722C463.017 240.178 462.507 240.538 461.907 240.802C461.319 241.054 460.659 241.18 459.927 241.18ZM457.119 236.32C457.119 236.92 457.245 237.46 457.497 237.94C457.749 238.42 458.085 238.798 458.505 239.074C458.925 239.35 459.399 239.488 459.927 239.488C460.443 239.488 460.911 239.35 461.331 239.074C461.763 238.786 462.105 238.402 462.357 237.922C462.609 237.43 462.735 236.89 462.735 236.302C462.735 235.702 462.609 235.162 462.357 234.682C462.105 234.202 461.763 233.824 461.331 233.548C460.911 233.26 460.443 233.116 459.927 233.116C459.399 233.116 458.925 233.26 458.505 233.548C458.085 233.836 457.749 234.22 457.497 234.7C457.245 235.168 457.119 235.708 457.119 236.32ZM466.525 241V231.586H472.537V233.332H468.505V241H466.525ZM474.031 241V231.604H476.011V238.354L480.781 231.586H482.581V241H480.601V234.394L475.885 241H474.031ZM484.191 241.09V239.326C484.491 239.326 484.761 239.254 485.001 239.11C485.241 238.954 485.451 238.702 485.631 238.354C485.811 237.994 485.955 237.496 486.063 236.86C486.171 236.224 486.243 235.414 486.279 234.43L486.405 231.586H493.119V241H491.139V233.332H488.151L488.115 234.61C488.067 235.87 487.953 236.92 487.773 237.76C487.593 238.588 487.341 239.248 487.017 239.74C486.705 240.22 486.309 240.568 485.829 240.784C485.361 240.988 484.815 241.09 484.191 241.09ZM499.76 241.18C499.028 241.18 498.362 241.054 497.762 240.802C497.174 240.538 496.664 240.184 496.232 239.74C495.8 239.284 495.464 238.768 495.224 238.192C494.996 237.604 494.882 236.98 494.882 236.32C494.882 235.432 495.086 234.622 495.494 233.89C495.902 233.146 496.472 232.552 497.204 232.108C497.936 231.652 498.794 231.424 499.778 231.424C500.762 231.424 501.608 231.652 502.316 232.108C503.036 232.552 503.594 233.14 503.99 233.872C504.386 234.604 504.584 235.39 504.584 236.23C504.584 236.374 504.578 236.512 504.566 236.644C504.554 236.764 504.542 236.866 504.53 236.95H496.988C497.024 237.502 497.174 237.988 497.438 238.408C497.714 238.816 498.062 239.14 498.482 239.38C498.902 239.608 499.352 239.722 499.832 239.722C500.36 239.722 500.858 239.59 501.326 239.326C501.806 239.062 502.13 238.714 502.298 238.282L503.99 238.768C503.786 239.224 503.474 239.638 503.054 240.01C502.646 240.37 502.16 240.658 501.596 240.874C501.032 241.078 500.42 241.18 499.76 241.18ZM496.934 235.636H502.622C502.586 235.096 502.43 234.622 502.154 234.214C501.89 233.794 501.548 233.47 501.128 233.242C500.72 233.002 500.264 232.882 499.76 232.882C499.268 232.882 498.812 233.002 498.392 233.242C497.984 233.47 497.648 233.794 497.384 234.214C497.12 234.622 496.97 235.096 496.934 235.636ZM506.199 241V231.586H511.239C511.839 231.586 512.331 231.7 512.715 231.928C513.111 232.144 513.405 232.426 513.597 232.774C513.789 233.11 513.885 233.482 513.885 233.89C513.885 234.406 513.765 234.862 513.525 235.258C513.285 235.654 512.931 235.954 512.463 236.158C513.003 236.314 513.441 236.59 513.777 236.986C514.125 237.37 514.299 237.868 514.299 238.48C514.299 239.032 514.167 239.5 513.903 239.884C513.639 240.256 513.261 240.538 512.769 240.73C512.289 240.91 511.725 241 511.077 241H506.199ZM508.071 239.632H511.023C511.275 239.632 511.503 239.572 511.707 239.452C511.923 239.32 512.091 239.152 512.211 238.948C512.331 238.732 512.391 238.504 512.391 238.264C512.391 238 512.331 237.766 512.211 237.562C512.103 237.358 511.947 237.196 511.743 237.076C511.551 236.956 511.323 236.896 511.059 236.896H508.071V239.632ZM508.071 235.618H510.735C510.987 235.618 511.209 235.558 511.401 235.438C511.593 235.306 511.743 235.132 511.851 234.916C511.959 234.7 512.013 234.472 512.013 234.232C512.013 233.884 511.899 233.584 511.671 233.332C511.443 233.08 511.143 232.954 510.771 232.954H508.071V235.618Z" fill="black"/>
</svg>
